<svg width="24" height="24" fill="currentColor" xmlns="http://www.w3.org/2000/svg"><path d="M11.499 1.29a1 1 0 011.002 0l8.5 4.921a1 1 0 01.499.866v9.846a1 1 0 01-.499.866l-8.5 4.92a1 1 0 01-1.002 0l-8.5-4.92a1 1 0 01-.499-.866V7.077a1 1 0 01.499-.866l8.5-4.92zm1.002 2.311a1 1 0 00-1.002 0l-6.5 3.763a1 1 0 00-.499.866v7.54a1 1 0 00.499.866l6.5 3.763a1 1 0 001.002 0l6.5-3.763a1 1 0 00.499-.866V8.23a1 1 0 00-.499-.866l-6.5-3.763zM12 16a4 4 0 110-8 4 4 0 010 8zm0-2a2 2 0 100-4 2 2 0 000 4z"/></svg>