<svg width="24" height="24" viewBox="0 0 24 24" fill="currentColor" xmlns="http://www.w3.org/2000/svg">
<path d="M11.499 1.29007C11.8089 1.11064 12.1911 1.11064 12.501 1.29007L21.001 6.21113C21.3099 6.38992 21.5 6.71971 21.5 7.07655V16.9234C21.5 17.2803 21.3099 17.6101 21.001 17.7889L12.501 22.7099C12.1911 22.8894 11.8089 22.8894 11.499 22.7099L2.99896 17.7889C2.69015 17.6101 2.5 17.2803 2.5 16.9234V7.07655C2.5 6.71971 2.69015 6.38991 2.99896 6.21113L11.499 1.29007ZM12.501 3.60106C12.1911 3.42164 11.8089 3.42164 11.499 3.60106L4.99897 7.36413C4.69015 7.54292 4.5 7.87272 4.5 8.22956V15.7704C4.5 16.1273 4.69015 16.4571 4.99897 16.6359L11.499 20.3989C11.8089 20.5784 12.1911 20.5784 12.501 20.3989L19.001 16.6359C19.3098 16.4571 19.5 16.1273 19.5 15.7704V8.22956C19.5 7.87272 19.3098 7.54292 19.001 7.36413L12.501 3.60106ZM12 16C10.9391 16 9.92172 15.5786 9.17157 14.8284C8.42143 14.0783 8 13.0609 8 12C8 10.9391 8.42143 9.92172 9.17157 9.17157C9.92172 8.42143 10.9391 8 12 8C13.0609 8 14.0783 8.42143 14.8284 9.17157C15.5786 9.92172 16 10.9391 16 12C16 13.0609 15.5786 14.0783 14.8284 14.8284C14.0783 15.5786 13.0609 16 12 16ZM12 14C12.5304 14 13.0391 13.7893 13.4142 13.4142C13.7893 13.0391 14 12.5304 14 12C14 11.4696 13.7893 10.9609 13.4142 10.5858C13.0391 10.2107 12.5304 10 12 10C11.4696 10 10.9609 10.2107 10.5858 10.5858C10.2107 10.9609 10 11.4696 10 12C10 12.5304 10.2107 13.0391 10.5858 13.4142C10.9609 13.7893 11.4696 14 12 14Z" />
</svg>
